<svg width="20" height="20" viewBox="0 0 20 20" fill="none" xmlns="http://www.w3.org/2000/svg">
<path d="M16.6693 6.66665H14.1693V3.33331H0.835938V14.1666H2.5026C2.5026 15.55 3.61927 16.6666 5.0026 16.6666C6.38594 16.6666 7.5026 15.55 7.5026 14.1666H12.5026C12.5026 15.55 13.6193 16.6666 15.0026 16.6666C16.3859 16.6666 17.5026 15.55 17.5026 14.1666H19.1693V9.99998L16.6693 6.66665ZM5.0026 15.4166C4.31094 15.4166 3.7526 14.8583 3.7526 14.1666C3.7526 13.475 4.31094 12.9166 5.0026 12.9166C5.69427 12.9166 6.2526 13.475 6.2526 14.1666C6.2526 14.8583 5.69427 15.4166 5.0026 15.4166ZM12.5026 5.83331H10.8359V11.6666H9.16927V5.83331H7.5026V11.6666H5.83594V5.83331H4.16927V11.6666H2.5026V4.99998H12.5026V5.83331ZM15.0026 15.4166C14.3109 15.4166 13.7526 14.8583 13.7526 14.1666C13.7526 13.475 14.3109 12.9166 15.0026 12.9166C15.6943 12.9166 16.2526 13.475 16.2526 14.1666C16.2526 14.8583 15.6943 15.4166 15.0026 15.4166ZM14.1693 9.99998V7.91665H16.2526L17.8859 9.99998H14.1693Z" fill="#808089"/>
</svg>
