<svg width="20" height="20" viewBox="0 0 20 20" fill="none" xmlns="http://www.w3.org/2000/svg">
<path d="M17.5 15.8333V14.1666H6.66667V15.8333H17.5ZM17.5 10.8333V9.16665H6.66667V10.8333H17.5ZM6.66667 5.83331H17.5V4.16665H6.66667V5.83331ZM3.33333 4.16665V5.83331H5V4.16665H3.33333ZM2.5 4.16665C2.5 3.94563 2.5878 3.73367 2.74408 3.57739C2.90036 3.42111 3.11232 3.33331 3.33333 3.33331H5C5.22101 3.33331 5.43298 3.42111 5.58926 3.57739C5.74554 3.73367 5.83333 3.94563 5.83333 4.16665V5.83331C5.83333 6.05433 5.74554 6.26629 5.58926 6.42257C5.43298 6.57885 5.22101 6.66665 5 6.66665H3.33333C3.11232 6.66665 2.90036 6.57885 2.74408 6.42257C2.5878 6.26629 2.5 6.05433 2.5 5.83331V4.16665ZM3.33333 9.16665V10.8333H5V9.16665H3.33333ZM2.5 9.16665C2.5 8.94563 2.5878 8.73367 2.74408 8.57739C2.90036 8.42111 3.11232 8.33331 3.33333 8.33331H5C5.22101 8.33331 5.43298 8.42111 5.58926 8.57739C5.74554 8.73367 5.83333 8.94563 5.83333 9.16665V10.8333C5.83333 11.0543 5.74554 11.2663 5.58926 11.4226C5.43298 11.5788 5.22101 11.6666 5 11.6666H3.33333C3.11232 11.6666 2.90036 11.5788 2.74408 11.4226C2.5878 11.2663 2.5 11.0543 2.5 10.8333V9.16665ZM3.33333 14.1666V15.8333H5V14.1666H3.33333ZM2.5 14.1666C2.5 13.9456 2.5878 13.7337 2.74408 13.5774C2.90036 13.4211 3.11232 13.3333 3.33333 13.3333H5C5.22101 13.3333 5.43298 13.4211 5.58926 13.5774C5.74554 13.7337 5.83333 13.9456 5.83333 14.1666V15.8333C5.83333 16.0543 5.74554 16.2663 5.58926 16.4226C5.43298 16.5788 5.22101 16.6666 5 16.6666H3.33333C3.11232 16.6666 2.90036 16.5788 2.74408 16.4226C2.5878 16.2663 2.5 16.0543 2.5 15.8333V14.1666Z" fill="#808089"/>
</svg>
