<svg width="20" height="20" viewBox="0 0 20 20" fill="none" xmlns="http://www.w3.org/2000/svg">
<path d="M16.6641 6.66668H3.33073V5.00001H16.6641M16.6641 15H3.33073V10H16.6641M16.6641 3.33334H3.33073C2.40573 3.33334 1.66406 4.07501 1.66406 5.00001V15C1.66406 15.442 1.83966 15.866 2.15222 16.1785C2.46478 16.4911 2.8887 16.6667 3.33073 16.6667H16.6641C17.1061 16.6667 17.53 16.4911 17.8426 16.1785C18.1551 15.866 18.3307 15.442 18.3307 15V5.00001C18.3307 4.55798 18.1551 4.13406 17.8426 3.8215C17.53 3.50894 17.1061 3.33334 16.6641 3.33334Z" fill="#808089"/>
</svg>
