<svg width="20" height="20" viewBox="0 0 20 20" fill="none" xmlns="http://www.w3.org/2000/svg">
<path d="M9.99824 6.66666C10.8823 6.66666 11.7301 7.01785 12.3553 7.64297C12.9804 8.26809 13.3316 9.11593 13.3316 9.99999C13.3316 10.884 12.9804 11.7319 12.3553 12.357C11.7301 12.9821 10.8823 13.3333 9.99824 13.3333C9.11419 13.3333 8.26634 12.9821 7.64122 12.357C7.0161 11.7319 6.66491 10.884 6.66491 9.99999C6.66491 9.11593 7.0161 8.26809 7.64122 7.64297C8.26634 7.01785 9.11419 6.66666 9.99824 6.66666ZM9.99824 8.33332C9.55621 8.33332 9.13229 8.50892 8.81973 8.82148C8.50717 9.13404 8.33157 9.55796 8.33157 9.99999C8.33157 10.442 8.50717 10.8659 8.81973 11.1785C9.13229 11.4911 9.55621 11.6667 9.99824 11.6667C10.4403 11.6667 10.8642 11.4911 11.1768 11.1785C11.4893 10.8659 11.6649 10.442 11.6649 9.99999C11.6649 9.55796 11.4893 9.13404 11.1768 8.82148C10.8642 8.50892 10.4403 8.33332 9.99824 8.33332ZM8.33157 18.3333C8.12324 18.3333 7.94824 18.1833 7.91491 17.9833L7.60658 15.775C7.08158 15.5667 6.63158 15.2833 6.19824 14.95L4.12324 15.7917C3.93991 15.8583 3.71491 15.7917 3.61491 15.6083L1.94824 12.725C1.89724 12.6391 1.87926 12.5376 1.89766 12.4395C1.91607 12.3413 1.9696 12.2532 2.04824 12.1917L3.80658 10.8083L3.74824 9.99999L3.80658 9.16666L2.04824 7.80832C1.9696 7.74677 1.91607 7.65867 1.89766 7.56051C1.87926 7.46236 1.89724 7.36085 1.94824 7.27499L3.61491 4.39166C3.71491 4.20832 3.93991 4.13332 4.12324 4.20832L6.19824 5.04166C6.63158 4.71666 7.08158 4.43332 7.60658 4.22499L7.91491 2.01666C7.94824 1.81666 8.12324 1.66666 8.33157 1.66666H11.6649C11.8732 1.66666 12.0482 1.81666 12.0816 2.01666L12.3899 4.22499C12.9149 4.43332 13.3649 4.71666 13.7982 5.04166L15.8732 4.20832C16.0566 4.13332 16.2816 4.20832 16.3816 4.39166L18.0482 7.27499C18.1566 7.45832 18.1066 7.68332 17.9482 7.80832L16.1899 9.16666L16.2482 9.99999L16.1899 10.8333L17.9482 12.1917C18.1066 12.3167 18.1566 12.5417 18.0482 12.725L16.3816 15.6083C16.2816 15.7917 16.0566 15.8667 15.8732 15.7917L13.7982 14.9583C13.3649 15.2833 12.9149 15.5667 12.3899 15.775L12.0816 17.9833C12.0482 18.1833 11.8732 18.3333 11.6649 18.3333H8.33157ZM9.37324 3.33332L9.06491 5.50832C8.06491 5.71666 7.18157 6.24999 6.53991 6.99166L4.53158 6.12499L3.90658 7.20832L5.66491 8.49999C5.33158 9.47221 5.33158 10.5278 5.66491 11.5L3.89824 12.8L4.52324 13.8833L6.54824 13.0167C7.18991 13.75 8.06491 14.2833 9.05657 14.4833L9.36491 16.6667H10.6316L10.9399 14.4917C11.9316 14.2833 12.8066 13.75 13.4482 13.0167L15.4732 13.8833L16.0982 12.8L14.3316 11.5083C14.6649 10.5333 14.6649 9.47499 14.3316 8.49999L16.0899 7.20832L15.4649 6.12499L13.4566 6.99166C12.8018 6.23359 11.9135 5.71472 10.9316 5.51666L10.6232 3.33332H9.37324Z" fill="#808089"/>
</svg>
