<svg width="20" height="20" viewBox="0 0 20 20" fill="none" xmlns="http://www.w3.org/2000/svg">
<path d="M10.0026 3.33334C10.8867 3.33334 11.7345 3.68453 12.3596 4.30965C12.9847 4.93478 13.3359 5.78262 13.3359 6.66668C13.3359 7.55073 12.9847 8.39858 12.3596 9.0237C11.7345 9.64882 10.8867 10 10.0026 10C9.11855 10 8.2707 9.64882 7.64558 9.0237C7.02046 8.39858 6.66927 7.55073 6.66927 6.66668C6.66927 5.78262 7.02046 4.93478 7.64558 4.30965C8.2707 3.68453 9.11855 3.33334 10.0026 3.33334ZM10.0026 5.00001C9.56058 5.00001 9.13665 5.1756 8.82409 5.48817C8.51153 5.80073 8.33594 6.22465 8.33594 6.66668C8.33594 7.1087 8.51153 7.53263 8.82409 7.84519C9.13665 8.15775 9.56058 8.33334 10.0026 8.33334C10.4446 8.33334 10.8686 8.15775 11.1811 7.84519C11.4937 7.53263 11.6693 7.1087 11.6693 6.66668C11.6693 6.22465 11.4937 5.80073 11.1811 5.48817C10.8686 5.1756 10.4446 5.00001 10.0026 5.00001ZM10.0026 10.8333C12.2276 10.8333 16.6693 11.9417 16.6693 14.1667V16.6667H3.33594V14.1667C3.33594 11.9417 7.7776 10.8333 10.0026 10.8333ZM10.0026 12.4167C7.5276 12.4167 4.91927 13.6333 4.91927 14.1667V15.0833H15.0859V14.1667C15.0859 13.6333 12.4776 12.4167 10.0026 12.4167Z" fill="#808089"/>
</svg>
